<svg width="17" height="17" viewBox="0 0 17 17" fill="none" xmlns="http://www.w3.org/2000/svg">
<path d="M15.5 6.36951C15.4749 7.23992 15.117 8.06757 14.5 8.68201L12.3281 10.8551C12.0118 11.1732 11.6355 11.4253 11.2211 11.597C10.8067 11.7686 10.3623 11.8564 9.91375 11.8551H9.91062C9.4544 11.8548 9.00286 11.7631 8.58269 11.5853C8.16251 11.4075 7.78223 11.1474 7.46429 10.8202C7.14635 10.493 6.89722 10.1054 6.73159 9.68027C6.56597 9.25517 6.48722 8.80118 6.5 8.34514C6.50373 8.21253 6.55998 8.08683 6.65639 7.9957C6.75279 7.90457 6.88145 7.85547 7.01406 7.8592C7.14667 7.86293 7.27236 7.91918 7.3635 8.01559C7.45463 8.11199 7.50373 8.24065 7.5 8.37326C7.49089 8.69571 7.54652 9.01672 7.66358 9.31732C7.78064 9.61791 7.95677 9.89199 8.18155 10.1234C8.40634 10.3547 8.67522 10.5387 8.97231 10.6644C9.2694 10.7901 9.58867 10.8549 9.91125 10.8551C10.2283 10.8559 10.5425 10.7938 10.8354 10.6725C11.1284 10.5512 11.3944 10.373 11.6181 10.1483L13.79 7.97639C14.2381 7.52264 14.4885 6.91004 14.4865 6.27233C14.4845 5.63462 14.2303 5.02359 13.7793 4.57266C13.3284 4.12173 12.7174 3.86752 12.0797 3.86552C11.442 3.86352 10.8294 4.11391 10.3756 4.56201L9.68812 5.24951C9.59359 5.33932 9.46772 5.38865 9.33734 5.38698C9.20696 5.38531 9.08238 5.33278 8.99018 5.24058C8.89798 5.14837 8.84545 5.0238 8.84378 4.89342C8.84211 4.76304 8.89144 4.63717 8.98125 4.54264L9.66875 3.85514C9.98593 3.53784 10.3625 3.28614 10.777 3.11442C11.1915 2.9427 11.6357 2.85431 12.0844 2.85431C12.533 2.85431 12.9773 2.9427 13.3917 3.11442C13.8062 3.28614 14.1828 3.53784 14.5 3.85514C14.8285 4.18448 15.0866 4.57724 15.2585 5.0095C15.4304 5.44176 15.5126 5.90449 15.5 6.36951ZM7.3125 12.4589L6.625 13.1464C6.40078 13.3721 6.13392 13.5511 5.83992 13.6727C5.54593 13.7944 5.23067 13.8564 4.9125 13.8551C4.43519 13.8548 3.9687 13.7129 3.57198 13.4475C3.17525 13.1821 2.8661 12.8051 2.68357 12.364C2.50104 11.923 2.45334 11.4378 2.54648 10.9696C2.63962 10.5015 2.86943 10.0715 3.20687 9.73389L5.375 7.56201C5.71649 7.21872 6.15332 6.98604 6.62874 6.89419C7.10417 6.80234 7.59623 6.85557 8.04102 7.04697C8.4858 7.23836 8.86277 7.55907 9.12294 7.96745C9.38312 8.37583 9.51449 8.85301 9.5 9.33701C9.49627 9.46962 9.54537 9.59828 9.6365 9.69468C9.72763 9.79109 9.85333 9.84734 9.98594 9.85107C10.1185 9.8548 10.2472 9.8057 10.3436 9.71457C10.44 9.62344 10.4963 9.49774 10.5 9.36514C10.512 8.90084 10.4296 8.43895 10.2577 8.00748C10.0858 7.57602 9.82799 7.18397 9.5 6.85514C8.85949 6.2149 7.99093 5.85525 7.08531 5.85525C6.17969 5.85525 5.31113 6.2149 4.67062 6.85514L2.5 9.02701C2.02264 9.50417 1.69745 10.1121 1.5655 10.7741C1.43356 11.436 1.5008 12.1222 1.75872 12.7459C2.01663 13.3696 2.45366 13.9029 3.01455 14.2783C3.57545 14.6537 4.23505 14.8545 4.91 14.8551C5.35867 14.8564 5.80314 14.7687 6.21767 14.5971C6.63221 14.4254 7.00858 14.1732 7.325 13.8551L8.0125 13.1676C8.09341 13.0723 8.13569 12.9502 8.13098 12.8252C8.12628 12.7003 8.07493 12.5816 7.98708 12.4927C7.89922 12.4037 7.78123 12.3509 7.65636 12.3447C7.53149 12.3384 7.40881 12.3792 7.3125 12.4589Z" fill="black"/>
</svg>
