<svg width="30" height="30" viewBox="0 0 30 30" fill="none" xmlns="http://www.w3.org/2000/svg">
<g clip-path="url('#clip0_6_2055')">
<path d="M0.751512 14.8205C0.750814 17.3411 1.40942 19.8022 2.66174 21.9715L0.631744 29.3834L8.21686 27.3946C10.3148 28.5367 12.6654 29.1351 15.0541 29.1353H15.0603C22.9458 29.1353 29.3648 22.7186 29.3681 14.8318C29.3697 11.01 27.8827 7.4163 25.181 4.71258C22.4799 2.0091 18.8874 0.519444 15.0598 0.5177C7.17337 0.5177 0.754884 6.93398 0.751628 14.8205" fill="url('#paint0_linear_6_2055')"></path>
<path d="M0.240691 14.8158C0.239877 17.4271 0.922086 19.9763 2.21906 22.2233L0.116272 29.9008L7.97337 27.8407C10.1382 29.021 12.5757 29.6434 15.0559 29.6443H15.0623C23.2307 29.6443 29.8802 22.9969 29.8837 14.8277C29.8851 10.8686 28.3446 7.1457 25.5465 4.34512C22.748 1.54488 19.0271 0.00162791 15.0623 0C6.89255 0 0.243946 6.64651 0.240691 14.8158ZM4.91988 21.8363L4.6265 21.3706C3.39325 19.4097 2.74232 17.1436 2.74325 14.8167C2.74581 8.02663 8.27185 2.50233 15.067 2.50233C18.3577 2.50372 21.4502 3.78651 23.7763 6.11395C26.1022 8.44163 27.3821 11.5358 27.3813 14.8267C27.3783 21.6169 21.8521 27.1419 15.0623 27.1419H15.0574C12.8466 27.1407 10.6784 26.547 8.78743 25.425L8.33744 25.1581L3.67488 26.3806L4.91988 21.8363Z" fill="url('#paint1_linear_6_2055')"></path>
<path d="M11.3579 8.62189C11.0805 8.00526 10.7885 7.99282 10.5246 7.982C10.3086 7.9727 10.0616 7.9734 9.81488 7.9734C9.5679 7.9734 9.16662 8.06631 8.82744 8.43666C8.4879 8.80735 7.53116 9.70317 7.53116 11.5251C7.53116 13.3472 8.85825 15.1081 9.04325 15.3554C9.22848 15.6022 11.6052 19.4608 15.3694 20.9453C18.4978 22.1789 19.1344 21.9335 19.8134 21.8717C20.4924 21.81 22.0045 20.9761 22.313 20.1113C22.6217 19.2467 22.6217 18.5055 22.5292 18.3506C22.4366 18.1963 22.1896 18.1036 21.8193 17.9185C21.4488 17.7333 19.6281 16.8374 19.2887 16.7137C18.9492 16.5903 18.7023 16.5286 18.4553 16.8994C18.2084 17.2697 17.4992 18.1036 17.283 18.3506C17.0671 18.5982 16.8509 18.629 16.4807 18.4437C16.1101 18.2579 14.9174 17.8674 13.5024 16.6058C12.4015 15.6242 11.6583 14.412 11.4422 14.0412C11.2262 13.671 11.4191 13.4703 11.6048 13.2857C11.7712 13.1198 11.9752 12.8533 12.1606 12.6371C12.3452 12.4208 12.4069 12.2665 12.5303 12.0196C12.6539 11.7724 12.5921 11.5561 12.4996 11.3708C12.4069 11.1856 11.6872 9.3541 11.3579 8.62189Z" fill="white"></path>
</g>
<defs>
<linearGradient id="paint0_linear_6_2055" x1="1437.45" y1="2887.09" x2="1437.45" y2="0.5177" gradientUnits="userSpaceOnUse">
<stop stop-color="#1FAF38"></stop>
<stop offset="1" stop-color="#60D669"></stop>
</linearGradient>
<linearGradient id="paint1_linear_6_2055" x1="1488.49" y1="2990.08" x2="1488.49" y2="0" gradientUnits="userSpaceOnUse">
<stop stop-color="#F9F9F9"></stop>
<stop offset="1" stop-color="white"></stop>
</linearGradient>
<clipPath id="clip0_6_2055">
<rect width="29.7674" height="30" fill="white" transform="translate(0.116272)"></rect>
</clipPath>
</defs>
</svg>
