<svg width="31" height="30" viewBox="0 0 31 30" fill="none" xmlns="http://www.w3.org/2000/svg">
<g clip-path="url('#clip0_6_2059')">
<path d="M23.085 0H7.14752C3.26427 0 0.116272 3.148 0.116272 7.03125V22.9688C0.116272 26.852 3.26427 30 7.14752 30H23.085C26.9683 30 30.1163 26.852 30.1163 22.9688V7.03125C30.1163 3.148 26.9683 0 23.085 0Z" fill="url('#paint0_radial_6_2059')"></path>
<path d="M23.085 0H7.14752C3.26427 0 0.116272 3.148 0.116272 7.03125V22.9688C0.116272 26.852 3.26427 30 7.14752 30H23.085C26.9683 30 30.1163 26.852 30.1163 22.9688V7.03125C30.1163 3.148 26.9683 0 23.085 0Z" fill="url('#paint1_radial_6_2059')"></path>
<path d="M15.1173 3.28125C11.9347 3.28125 11.5353 3.2952 10.2853 3.35203C9.03776 3.40922 8.18615 3.60668 7.44108 3.89648C6.67022 4.19578 6.01643 4.59621 5.3651 5.24777C4.71319 5.89922 4.31276 6.55301 4.01252 7.32352C3.7219 8.06883 3.5242 8.92078 3.46807 10.1678C3.41217 11.4178 3.39752 11.8174 3.39752 15.0001C3.39752 18.1828 3.41158 18.581 3.4683 19.8309C3.52573 21.0785 3.72319 21.9301 4.01276 22.6752C4.31229 23.4461 4.71272 24.0998 5.36428 24.7512C6.01549 25.4031 6.66928 25.8045 7.43955 26.1038C8.18522 26.3936 9.03694 26.591 10.2843 26.6482C11.5343 26.705 11.9335 26.719 15.1159 26.719C18.2989 26.719 18.6971 26.705 19.947 26.6482C21.1946 26.591 22.0471 26.3936 22.7928 26.1038C23.5633 25.8045 24.2161 25.4031 24.8672 24.7512C25.5191 24.0998 25.9194 23.4461 26.2198 22.6755C26.5078 21.9301 26.7056 21.0783 26.7642 19.8312C26.8204 18.5812 26.835 18.1828 26.835 15.0001C26.835 11.8174 26.8204 11.418 26.7642 10.168C26.7056 8.92043 26.5078 8.06895 26.2198 7.32387C25.9194 6.55301 25.5191 5.89922 24.8672 5.24777C24.2154 4.59598 23.5635 4.19555 22.7921 3.8966C22.045 3.60668 21.1929 3.4091 19.9453 3.35203C18.6953 3.2952 18.2973 3.28125 15.1137 3.28125H15.1173ZM14.066 5.39309C14.3781 5.39262 14.7263 5.39309 15.1173 5.39309C18.2464 5.39309 18.6171 5.40434 19.8528 5.46047C20.9953 5.51273 21.6155 5.70363 22.0286 5.86406C22.5755 6.07641 22.9654 6.33035 23.3753 6.74063C23.7855 7.15078 24.0393 7.54137 24.2522 8.08828C24.4126 8.50078 24.6038 9.12094 24.6558 10.2635C24.7119 11.4989 24.7241 11.8699 24.7241 14.9974C24.7241 18.1249 24.7119 18.4961 24.6558 19.7313C24.6035 20.8739 24.4126 21.4941 24.2522 21.9067C24.0399 22.4536 23.7855 22.843 23.3753 23.2529C22.9651 23.6631 22.5757 23.9169 22.0286 24.1294C21.616 24.2905 20.9953 24.4809 19.8528 24.5332C18.6174 24.5893 18.2464 24.6015 15.1173 24.6015C11.9882 24.6015 11.6173 24.5893 10.382 24.5332C9.23944 24.4805 8.61928 24.2896 8.20584 24.1291C7.65905 23.9167 7.26834 23.6629 6.85819 23.2527C6.44803 22.8425 6.1942 22.4529 5.98127 21.9057C5.82084 21.4931 5.62971 20.873 5.57768 19.7304C5.52155 18.495 5.5103 18.124 5.5103 14.9945C5.5103 11.8651 5.52155 11.496 5.57768 10.2606C5.62994 9.11801 5.82084 8.49785 5.98127 8.08477C6.19373 7.53785 6.44803 7.14727 6.8583 6.73711C7.26846 6.32695 7.65905 6.07301 8.20596 5.8602C8.61905 5.69906 9.23944 5.50863 10.382 5.45613C11.4631 5.40727 11.882 5.39262 14.066 5.39016V5.39309ZM21.3728 7.33887C20.5964 7.33887 19.9665 7.96816 19.9665 8.74465C19.9665 9.52102 20.5964 10.1509 21.3728 10.1509C22.1492 10.1509 22.779 9.52102 22.779 8.74465C22.779 7.96828 22.1492 7.3384 21.3728 7.3384V7.33887ZM15.1173 8.98195C11.7939 8.98195 9.09928 11.6766 9.09928 15.0001C9.09928 18.3237 11.7939 21.017 15.1173 21.017C18.4409 21.017 21.1346 18.3237 21.1346 15.0001C21.1346 11.6767 18.4406 8.98195 15.1171 8.98195H15.1173ZM15.1173 11.0938C17.2746 11.0938 19.0237 12.8426 19.0237 15.0001C19.0237 17.1574 17.2746 18.9064 15.1173 18.9064C12.9599 18.9064 11.2111 17.1574 11.2111 15.0001C11.2111 12.8426 12.9599 11.0938 15.1173 11.0938Z" fill="white"></path>
</g>
<defs>
<radialGradient id="paint0_radial_6_2059" cx="0" cy="0" r="1" gradientUnits="userSpaceOnUse" gradientTransform="translate(8.08502 32.3106) rotate(-90) scale(29.7322 27.6533)">
<stop stop-color="#FFDD55"></stop>
<stop offset="0.1" stop-color="#FFDD55"></stop>
<stop offset="0.5" stop-color="#FF543E"></stop>
<stop offset="1" stop-color="#C837AB"></stop>
</radialGradient>
<radialGradient id="paint1_radial_6_2059" cx="0" cy="0" r="1" gradientUnits="userSpaceOnUse" gradientTransform="translate(-4.90885 2.16105) rotate(78.681) scale(13.2905 54.7837)">
<stop stop-color="#3771C8"></stop>
<stop offset="0.128" stop-color="#3771C8"></stop>
<stop offset="1" stop-color="#6600FF" stop-opacity="0"></stop>
</radialGradient>
<clipPath id="clip0_6_2059">
<rect width="30" height="30" fill="white" transform="translate(0.116272)"></rect>
</clipPath>
</defs>
</svg>
